<svg xmlns="http://www.w3.org/2000/svg" width="1200" height="750" viewBox="0 0 1200 750">
  <defs>
    <linearGradient id="g2" x1="0" y1="0" x2="1" y2="1">
      <stop offset="0%" stop-color="#101410"/>
      <stop offset="100%" stop-color="#17251b"/>
    </linearGradient>
  </defs>
  <rect width="1200" height="750" fill="url(#g2)"/>
  <g opacity="0.12" stroke="#6bf29a">
    <line x1="0" y1="188" x2="1200" y2="188"/>
    <line x1="0" y1="375" x2="1200" y2="375"/>
    <line x1="0" y1="562" x2="1200" y2="562"/>
    <line x1="300" y1="0" x2="300" y2="750"/>
    <line x1="600" y1="0" x2="600" y2="750"/>
    <line x1="900" y1="0" x2="900" y2="750"/>
  </g>
  <rect x="120" y="150" width="960" height="450" rx="20" fill="#151a15" stroke="#24271f" stroke-width="2"/>
  <rect x="160" y="190" width="880" height="48" rx="8" fill="#1f251f"/>
  <circle cx="188" cy="214" r="6" fill="#3fbf6f"/>
  <circle cx="212" cy="214" r="6" fill="#2a2f28"/>
  <circle cx="236" cy="214" r="6" fill="#2a2f28"/>
  <rect x="160" y="262" width="380" height="300" rx="12" fill="#1c231c"/>
  <rect x="560" y="262" width="480" height="140" rx="12" fill="#1c231c"/>
  <rect x="560" y="418" width="230" height="144" rx="12" fill="#1c231c"/>
  <rect x="810" y="418" width="230" height="144" rx="12" fill="#1c231c"/>
  <text x="600" y="700" font-family="monospace" font-size="22" fill="#6bf29a" text-anchor="middle">taskflow.app</text>
</svg>
